<svg id="euirg5jy7maf1" xmlns="http://www.w3.org/2000/svg" xmlns:xlink="http://www.w3.org/1999/xlink" viewBox="275 225 300 170" shape-rendering="geometricPrecision" text-rendering="geometricPrecision" width="300" height="170"><style><![CDATA[#euirg5jy7maf3_to {animation: euirg5jy7maf3_to__to 1200ms linear infinite normal forwards}@keyframes euirg5jy7maf3_to__to { 0% {transform: translate(408.229950px,303.132423px);animation-timing-function: cubic-bezier(0.420000,0,0.580000,1)} 24.166667% {transform: translate(408.229950px,306.132423px);animation-timing-function: cubic-bezier(0.420000,0,0.580000,1)} 49.166667% {transform: translate(408.229950px,303.132423px);animation-timing-function: cubic-bezier(0.420000,0,0.580000,1)} 74.166667% {transform: translate(408.229950px,306.132423px);animation-timing-function: cubic-bezier(0.420000,0,0.580000,1)} 99.166667% {transform: translate(408.229950px,303.132423px)} 100% {transform: translate(408.229950px,303.132423px)} }#euirg5jy7maf12_tr {animation: euirg5jy7maf12_tr__tr 1200ms linear infinite normal forwards}@keyframes euirg5jy7maf12_tr__tr { 0% {transform: translate(338.369995px,340.760010px) rotate(0deg)} 99.166667% {transform: translate(338.369995px,340.760010px) rotate(720deg)} 100% {transform: translate(338.369995px,340.760010px) rotate(723.600000deg)} }#euirg5jy7maf15_tr {animation: euirg5jy7maf15_tr__tr 1200ms linear infinite normal forwards}@keyframes euirg5jy7maf15_tr__tr { 0% {transform: translate(515.814821px,340.760010px) rotate(-21.600000deg)} 4.166667% {transform: translate(515.814821px,340.760010px) rotate(0deg)} 100% {transform: translate(515.814821px,340.760010px) rotate(690deg)} }#euirg5jy7maf18_to {animation: euirg5jy7maf18_to__to 1200ms linear infinite normal forwards}@keyframes euirg5jy7maf18_to__to { 0% {transform: translate(459.775406px,242.621458px)} 4.166667% {transform: translate(459.775406px,242.349976px);animation-timing-function: cubic-bezier(0.420000,0,0.580000,1)} 29.166667% {transform: translate(459.775406px,245.674445px);animation-timing-function: cubic-bezier(0.420000,0,0.580000,1)} 54.166667% {transform: translate(459.775406px,242.349976px);animation-timing-function: cubic-bezier(0.420000,0,0.580000,1)} 79.166667% {transform: translate(459.775406px,245.674445px);animation-timing-function: cubic-bezier(0.420000,0,0.580000,1)} 100% {transform: translate(459.775406px,242.904054px)} }]]></style><defs><rect id="euirg5jy7maf2" width="116.330000" height="110.500000" rx="0" ry="0"/></defs><g id="euirg5jy7maf3_to" transform="translate(408.229950,303.132423)"><g id="euirg5jy7maf3" transform="translate(-408.229950,-303.132423)"><g id="euirg5jy7maf4"><g id="euirg5jy7maf5" clip-path="url(#euirg5jy7maf7)"><path id="euirg5jy7maf6" d="M435.890000,256.590000L410.870000,295.360000L420.020000,301.260000L445.040000,262.490000C450.220000,254.460000,460.970000,252.140000,469,257.320000C477.030000,262.500000,479.350000,273.250000,474.160000,281.280000L433.840000,343.770000C428.660000,351.800000,417.910000,354.120000,409.880000,348.930000C401.850000,343.750000,399.530000,333,404.710000,324.970000L414.110000,310.410000L404.960000,304.510000L395.560000,319.070000C387.120000,332.150000,390.890000,349.650000,403.970000,358.090000C417.050000,366.530000,434.550000,362.750000,442.990000,349.680000L483.310000,287.190000C491.750000,274.110000,487.980000,256.610000,474.900000,248.170000C461.830000,239.740000,444.330000,243.510000,435.890000,256.590000" fill="rgb(43,96,122)" stroke="none" stroke-width="1"/><clipPath id="euirg5jy7maf7"><use id="euirg5jy7maf8" width="116.330002" height="110.500000" xlink:href="#euirg5jy7maf2" transform="matrix(1 0 0 1 382.64999999999998 260.93000000000001)" fill="rgb(0,0,0)" stroke="none" stroke-width="1"/></clipPath></g></g><path id="euirg5jy7maf9" d="M414.120000,310.420000L428.750000,319.860000C432.390000,322.210000,435.010000,325.820000,436.110000,330.020000C437.200000,334.190000,436.720000,338.580000,434.750000,342.380000L445.950000,325.030000C443.880000,319.160000,439.900000,314.090000,434.660000,310.710000L420.030000,301.270000L414.120000,310.420000Z" fill="rgb(43,96,122)" stroke="none" stroke-width="1"/><path id="euirg5jy7maf10" d="M333.150000,278.800000L333.140000,278.810000L342.290000,284.710000L342.300000,284.700000C347.480000,276.670000,358.230000,274.350000,366.260000,279.530000L404.970000,304.510000L410.870000,295.360000L372.160000,270.380000C359.090000,261.950000,341.590000,265.720000,333.150000,278.800000" fill="rgb(43,96,122)" stroke="none" stroke-width="1"/><path id="euirg5jy7maf11" d="M333.140000,278.810000C324.710000,291.880000,328.490000,309.380000,341.560000,317.810000L403.980000,358.090000C396.390000,353.190000,391.940000,345.240000,391.190000,336.880000L347.470000,308.660000C339.440000,303.480000,337.130000,292.740000,342.300000,284.710000L333.140000,278.810000Z" fill="rgb(43,96,122)" stroke="none" stroke-width="1"/></g></g><g id="euirg5jy7maf12_tr" transform="translate(338.369995,340.760010) rotate(0)"><g id="euirg5jy7maf12" transform="translate(-340.370000,-340.760010)"><circle id="euirg5jy7maf13" r="44.940000" transform="matrix(1 0 0 1 338.37000000000000 340.75999999999999)" fill="none" stroke="rgb(43,96,122)" stroke-width="12" stroke-miterlimit="10"/><circle id="euirg5jy7maf14" r="10.440000" transform="matrix(1 0 0 1 339.08700317000000 340.75999999999999)" fill="rgb(43,96,122)" stroke="none" stroke-width="1"/></g></g><g id="euirg5jy7maf15_tr" transform="translate(515.814821,340.760010) rotate(-21.600000)"><g id="euirg5jy7maf15" transform="translate(-340.370000,-340.760010)"><circle id="euirg5jy7maf16" r="44.940000" transform="matrix(1 0 0 1 338.37000000000000 340.75999999999999)" fill="none" stroke="rgb(43,96,122)" stroke-width="12" stroke-miterlimit="10"/><circle id="euirg5jy7maf17" r="10.440000" transform="matrix(1 0 0 1 339.08700317000000 340.75999999999999)" fill="rgb(43,96,122)" stroke="none" stroke-width="1"/></g></g><g id="euirg5jy7maf18_to" transform="translate(459.775406,242.621458)"><path id="euirg5jy7maf18" d="M430.900000,256.180000C430.900000,256.180000,431.440000,245.430000,436.780000,238.310000C442.360000,230.850000,450.570000,228.530000,460.070000,228.520000C469.400000,228.510000,479.610000,230.310000,484.990000,240.140000C488.800000,247.090000,488.650000,256.180000,488.650000,256.180000L430.900000,256.180000Z" transform="translate(-459.775406,-242.349976)" fill="rgb(43,96,122)" stroke="none" stroke-width="1"/></g></svg>