<?xml version="1.0" standalone="no"?>
<!DOCTYPE svg PUBLIC "-//W3C//DTD SVG 20010904//EN"
 "http://www.w3.org/TR/2001/REC-SVG-20010904/DTD/svg10.dtd">
<svg version="1.0" xmlns="http://www.w3.org/2000/svg"
 width="700.000000pt" height="700.000000pt" viewBox="0 0 700.000000 700.000000"
 preserveAspectRatio="xMidYMid meet">
<metadata>
Created by potrace 1.14, written by Peter Selinger 2001-2017
</metadata>
<g transform="translate(0.000000,700.000000) scale(0.100000,-0.100000)"
fill="#000000" stroke="none">
<path d="M1795 6289 c-86 -9 -124 -15 -195 -35 -73 -20 -71 -19 -103 -32 -16
-7 -31 -12 -34 -12 -15 0 -189 -95 -249 -136 -60 -42 -211 -184 -254 -240
-129 -166 -220 -384 -246 -584 -11 -79 -12 -3413 -2 -3490 25 -184 95 -372
196 -520 198 -290 499 -475 857 -528 22 -3 807 -6 1745 -6 1608 0 1710 1 1795
18 203 41 368 115 525 235 66 50 192 183 245 256 82 115 172 315 191 425 3 14
7 31 9 38 17 48 25 295 12 392 -44 342 -252 668 -545 857 -73 47 -222 117
-294 137 -182 53 -182 53 -1298 52 l-1034 -1 0 -231 0 -232 -233 0 -233 0 0
234 0 234 188 -1 c103 0 208 0 233 0 l46 1 -2 1053 c-1 578 -4 1061 -7 1072
-3 11 -9 40 -13 65 -21 136 -96 319 -190 460 -64 95 -219 251 -312 313 -243
161 -521 233 -798 206z m300 -483 c33 -9 101 -37 152 -62 192 -96 328 -268
382 -483 20 -82 21 -102 21 -1112 l0 -1029 -117 0 c-700 -1 -750 -3 -907 -35
-107 -22 -281 -99 -384 -171 -35 -24 -65 -44 -68 -44 -2 0 -4 521 -4 1158 1
1190 1 1177 38 1297 16 53 69 151 110 207 103 140 268 244 446 282 79 17 254
13 331 -8z m538 -3155 c17 -1 18 -22 15 -443 l-3 -443 -29 -83 c-26 -75 -92
-199 -120 -228 -6 -6 -25 -26 -41 -45 -84 -95 -207 -171 -343 -213 -73 -22
-98 -24 -205 -22 -145 4 -209 20 -332 81 -252 126 -404 375 -403 662 1 343
241 642 578 719 63 15 627 24 883 15z m2496 -2 c310 -10 584 -230 677 -544 18
-61 26 -280 12 -335 -22 -87 -34 -122 -63 -181 -96 -194 -260 -331 -470 -393
-69 -20 -92 -21 -1242 -24 -645 -1 -1173 -1 -1173 1 0 3 21 35 46 73 25 38 59
95 75 127 35 68 94 242 104 307 4 25 10 54 12 65 3 11 6 216 8 456 1 241 5
441 8 445 4 8 1801 10 2006 3z"/>
</g>
</svg>
